<mxfile host="www.draw.io" modified="2019-11-20T03:32:14.636Z" agent="Mozilla/5.0 (Macintosh; Intel Mac OS X 10_14_5) AppleWebKit/537.36 (KHTML, like Gecko) Chrome/77.0.3865.90 Safari/537.36" etag="qDYIkNxl7axj0-mserRl" version="12.2.7" type="github" pages="1">
  <diagram id="y4ZexNS9l88Qdwmkb2It" name="Page-1">
    <mxGraphModel dx="2066" dy="1130" grid="1" gridSize="10" guides="1" tooltips="1" connect="1" arrows="1" fold="1" page="1" pageScale="1" pageWidth="827" pageHeight="1169" math="0" shadow="0">
      <root>
        <mxCell id="0"/>
        <mxCell id="1" parent="0"/>
        <mxCell id="JOBqX9CXfl2p00bhvLgv-1" value="&lt;b&gt;客户端Web包结构：&lt;/b&gt;&lt;br&gt;&lt;br&gt;/packages/settings/version/1/pages/push.html&lt;br&gt;/packages/settings/version/2/static/*" style="rounded=0;whiteSpace=wrap;html=1;align=left;spacing=15;" vertex="1" parent="1">
          <mxGeometry x="470" y="435" width="270" height="120" as="geometry"/>
        </mxCell>
        <mxCell id="JOBqX9CXfl2p00bhvLgv-3" style="edgeStyle=orthogonalEdgeStyle;rounded=0;orthogonalLoop=1;jettySize=auto;html=1;" edge="1" parent="1" source="JOBqX9CXfl2p00bhvLgv-2" target="JOBqX9CXfl2p00bhvLgv-1">
          <mxGeometry relative="1" as="geometry"/>
        </mxCell>
        <mxCell id="JOBqX9CXfl2p00bhvLgv-4" value="下载解压" style="text;html=1;resizable=0;points=[];align=center;verticalAlign=middle;labelBackgroundColor=#ffffff;" vertex="1" connectable="0" parent="JOBqX9CXfl2p00bhvLgv-3">
          <mxGeometry x="-0.0942" y="4" relative="1" as="geometry">
            <mxPoint as="offset"/>
          </mxGeometry>
        </mxCell>
        <mxCell id="JOBqX9CXfl2p00bhvLgv-2" value="UPM Service" style="ellipse;shape=cloud;whiteSpace=wrap;html=1;align=center;" vertex="1" parent="1">
          <mxGeometry x="556" y="290" width="120" height="80" as="geometry"/>
        </mxCell>
        <mxCell id="JOBqX9CXfl2p00bhvLgv-8" style="edgeStyle=orthogonalEdgeStyle;rounded=0;orthogonalLoop=1;jettySize=auto;html=1;entryX=0;entryY=0.5;entryDx=0;entryDy=0;" edge="1" parent="1" source="JOBqX9CXfl2p00bhvLgv-5" target="JOBqX9CXfl2p00bhvLgv-1">
          <mxGeometry relative="1" as="geometry"/>
        </mxCell>
        <mxCell id="JOBqX9CXfl2p00bhvLgv-9" value="拦截 https://.../packages/*" style="text;html=1;resizable=0;points=[];align=center;verticalAlign=middle;labelBackgroundColor=#ffffff;fontStyle=1" vertex="1" connectable="0" parent="JOBqX9CXfl2p00bhvLgv-8">
          <mxGeometry x="-0.2097" relative="1" as="geometry">
            <mxPoint as="offset"/>
          </mxGeometry>
        </mxCell>
        <mxCell id="JOBqX9CXfl2p00bhvLgv-5" value="WebView: 打开settings" style="swimlane;align=center;" vertex="1" parent="1">
          <mxGeometry x="80" y="440" width="190" height="110" as="geometry"/>
        </mxCell>
        <mxCell id="JOBqX9CXfl2p00bhvLgv-10" value="JSBridge.js" style="shape=ext;double=1;rounded=0;whiteSpace=wrap;html=1;align=center;fontStyle=1" vertex="1" parent="JOBqX9CXfl2p00bhvLgv-5">
          <mxGeometry x="90" y="60" width="85" height="40" as="geometry"/>
        </mxCell>
        <mxCell id="JOBqX9CXfl2p00bhvLgv-11" style="edgeStyle=orthogonalEdgeStyle;rounded=0;orthogonalLoop=1;jettySize=auto;html=1;" edge="1" parent="1" source="JOBqX9CXfl2p00bhvLgv-10">
          <mxGeometry relative="1" as="geometry">
            <mxPoint x="212.5" y="640" as="targetPoint"/>
          </mxGeometry>
        </mxCell>
        <mxCell id="JOBqX9CXfl2p00bhvLgv-14" style="edgeStyle=orthogonalEdgeStyle;rounded=0;orthogonalLoop=1;jettySize=auto;html=1;" edge="1" parent="1" source="JOBqX9CXfl2p00bhvLgv-12" target="JOBqX9CXfl2p00bhvLgv-13">
          <mxGeometry relative="1" as="geometry"/>
        </mxCell>
        <mxCell id="JOBqX9CXfl2p00bhvLgv-12" value="JSB.Push.setStatus({ type, status })" style="shape=process;whiteSpace=wrap;html=1;backgroundOutline=1;align=center;" vertex="1" parent="1">
          <mxGeometry x="80" y="640" width="267" height="60" as="geometry"/>
        </mxCell>
        <mxCell id="JOBqX9CXfl2p00bhvLgv-16" style="edgeStyle=orthogonalEdgeStyle;rounded=0;orthogonalLoop=1;jettySize=auto;html=1;" edge="1" parent="1" source="JOBqX9CXfl2p00bhvLgv-13" target="JOBqX9CXfl2p00bhvLgv-15">
          <mxGeometry relative="1" as="geometry"/>
        </mxCell>
        <mxCell id="JOBqX9CXfl2p00bhvLgv-13" value="callNativeFlat(&quot;Push&quot;, &quot;setStatus&quot;, params)" style="shape=process;whiteSpace=wrap;html=1;backgroundOutline=1;align=center;" vertex="1" parent="1">
          <mxGeometry x="48.5" y="740" width="330" height="60" as="geometry"/>
        </mxCell>
        <mxCell id="JOBqX9CXfl2p00bhvLgv-17" style="edgeStyle=orthogonalEdgeStyle;rounded=0;orthogonalLoop=1;jettySize=auto;html=1;exitX=0;exitY=0.5;exitDx=0;exitDy=0;" edge="1" parent="1" source="JOBqX9CXfl2p00bhvLgv-15" target="JOBqX9CXfl2p00bhvLgv-18">
          <mxGeometry relative="1" as="geometry">
            <mxPoint x="100" y="950" as="targetPoint"/>
          </mxGeometry>
        </mxCell>
        <mxCell id="JOBqX9CXfl2p00bhvLgv-20" value="iOS" style="text;html=1;resizable=0;points=[];align=center;verticalAlign=middle;labelBackgroundColor=#ffffff;fontStyle=1" vertex="1" connectable="0" parent="JOBqX9CXfl2p00bhvLgv-17">
          <mxGeometry x="-0.1321" y="26" relative="1" as="geometry">
            <mxPoint x="-28" y="-26" as="offset"/>
          </mxGeometry>
        </mxCell>
        <mxCell id="JOBqX9CXfl2p00bhvLgv-23" style="edgeStyle=orthogonalEdgeStyle;rounded=0;orthogonalLoop=1;jettySize=auto;html=1;exitX=1;exitY=0.5;exitDx=0;exitDy=0;entryX=0.5;entryY=0;entryDx=0;entryDy=0;fontFamily=Helvetica;" edge="1" parent="1" source="JOBqX9CXfl2p00bhvLgv-15" target="JOBqX9CXfl2p00bhvLgv-21">
          <mxGeometry relative="1" as="geometry"/>
        </mxCell>
        <mxCell id="JOBqX9CXfl2p00bhvLgv-24" value="Android" style="text;html=1;resizable=0;points=[];align=center;verticalAlign=middle;labelBackgroundColor=#ffffff;fontFamily=Helvetica;fontStyle=1" vertex="1" connectable="0" parent="JOBqX9CXfl2p00bhvLgv-23">
          <mxGeometry x="0.1028" y="-4" relative="1" as="geometry">
            <mxPoint as="offset"/>
          </mxGeometry>
        </mxCell>
        <mxCell id="JOBqX9CXfl2p00bhvLgv-15" value="判断系统？" style="rhombus;whiteSpace=wrap;html=1;align=center;" vertex="1" parent="1">
          <mxGeometry x="307" y="850" width="80" height="80" as="geometry"/>
        </mxCell>
        <mxCell id="JOBqX9CXfl2p00bhvLgv-34" style="edgeStyle=orthogonalEdgeStyle;rounded=0;orthogonalLoop=1;jettySize=auto;html=1;entryX=0;entryY=0.75;entryDx=0;entryDy=0;fontFamily=Helvetica;" edge="1" parent="1" source="JOBqX9CXfl2p00bhvLgv-18" target="JOBqX9CXfl2p00bhvLgv-33">
          <mxGeometry relative="1" as="geometry"/>
        </mxCell>
        <mxCell id="JOBqX9CXfl2p00bhvLgv-18" value="webkit.messageHandlers.defaultHandler.postMessage({&lt;br&gt;&amp;nbsp; &amp;nbsp; handleId: &quot;[uuid]&quot;,&lt;br&gt;&amp;nbsp; &amp;nbsp; module: &quot;Push&quot;,&lt;br&gt;&amp;nbsp; &amp;nbsp; method: &quot;setStatus&quot;,&lt;br&gt;&amp;nbsp; &amp;nbsp; args: {&lt;br&gt;&amp;nbsp; &amp;nbsp; &amp;nbsp; &amp;nbsp; type,&lt;br&gt;&amp;nbsp; &amp;nbsp; &amp;nbsp; &amp;nbsp; status&lt;br&gt;&amp;nbsp; &amp;nbsp; }&lt;br&gt;})" style="shape=process;whiteSpace=wrap;html=1;backgroundOutline=1;align=left;fontFamily=Helvetica;" vertex="1" parent="1">
          <mxGeometry x="27" y="970" width="386" height="150" as="geometry"/>
        </mxCell>
        <mxCell id="JOBqX9CXfl2p00bhvLgv-35" style="edgeStyle=orthogonalEdgeStyle;rounded=0;orthogonalLoop=1;jettySize=auto;html=1;entryX=1;entryY=0.75;entryDx=0;entryDy=0;fontFamily=Helvetica;exitX=0.5;exitY=1;exitDx=0;exitDy=0;" edge="1" parent="1" source="JOBqX9CXfl2p00bhvLgv-21" target="JOBqX9CXfl2p00bhvLgv-33">
          <mxGeometry relative="1" as="geometry"/>
        </mxCell>
        <mxCell id="JOBqX9CXfl2p00bhvLgv-21" value="androidBridge.exec({&lt;br&gt;&amp;nbsp; &amp;nbsp; handleId: &quot;[uuid]&quot;,&lt;br&gt;&amp;nbsp; &amp;nbsp; module: &quot;Push&quot;,&lt;br&gt;&amp;nbsp; &amp;nbsp; method: &quot;setStatus&quot;,&lt;br&gt;&amp;nbsp; &amp;nbsp; args: {&lt;br&gt;&amp;nbsp; &amp;nbsp; &amp;nbsp; &amp;nbsp; type,&lt;br&gt;&amp;nbsp; &amp;nbsp; &amp;nbsp; &amp;nbsp; status&lt;br&gt;&amp;nbsp; &amp;nbsp; }&lt;br&gt;})" style="shape=process;whiteSpace=wrap;html=1;backgroundOutline=1;align=left;fontFamily=Helvetica;" vertex="1" parent="1">
          <mxGeometry x="590" y="970" width="187" height="150" as="geometry"/>
        </mxCell>
        <mxCell id="JOBqX9CXfl2p00bhvLgv-26" value="class PushModule {&lt;br&gt;&lt;br&gt;&amp;nbsp; &amp;nbsp; setStatus(msg) {&lt;br&gt;&lt;br&gt;&amp;nbsp; &amp;nbsp; &amp;nbsp; &amp;nbsp; let args = msg.args&lt;br&gt;&amp;nbsp; &amp;nbsp; &amp;nbsp; &amp;nbsp; let type = args.type&lt;br&gt;&amp;nbsp; &amp;nbsp; &amp;nbsp; &amp;nbsp; let status = args.status&lt;br&gt;&lt;br&gt;&amp;nbsp; &amp;nbsp; &amp;nbsp; &amp;nbsp; ...&lt;br&gt;&lt;br&gt;&amp;nbsp; &amp;nbsp; &amp;nbsp; &amp;nbsp; &lt;b&gt;// 回调结果&lt;/b&gt;&lt;br&gt;&amp;nbsp; &amp;nbsp; &amp;nbsp; &amp;nbsp; let result = ...&lt;br&gt;&amp;nbsp; &amp;nbsp; &amp;nbsp; &amp;nbsp; this.callback({&lt;br&gt;&amp;nbsp; &amp;nbsp; &amp;nbsp; &amp;nbsp; &amp;nbsp; &amp;nbsp; ec: 200,&lt;br&gt;&amp;nbsp; &amp;nbsp; &amp;nbsp; &amp;nbsp; &amp;nbsp; &amp;nbsp; em: &quot;ok&quot;,&lt;br&gt;&amp;nbsp; &amp;nbsp; &amp;nbsp; &amp;nbsp; &amp;nbsp; &amp;nbsp; data: {&lt;br&gt;&amp;nbsp; &amp;nbsp; &amp;nbsp; &amp;nbsp; &amp;nbsp; &amp;nbsp; &amp;nbsp; &amp;nbsp; &amp;nbsp;status: newStatus&lt;br&gt;&amp;nbsp; &amp;nbsp; &amp;nbsp; &amp;nbsp; &amp;nbsp; &amp;nbsp; }&lt;br&gt;&amp;nbsp; &amp;nbsp; &amp;nbsp; &amp;nbsp; })&lt;br&gt;&amp;nbsp; &amp;nbsp; }&lt;br&gt;&lt;br&gt;}" style="rounded=0;whiteSpace=wrap;html=1;fontFamily=Helvetica;align=left;verticalAlign=top;" vertex="1" parent="1">
          <mxGeometry x="292.5" y="1480" width="229" height="330" as="geometry"/>
        </mxCell>
        <mxCell id="JOBqX9CXfl2p00bhvLgv-36" style="edgeStyle=orthogonalEdgeStyle;rounded=0;orthogonalLoop=1;jettySize=auto;html=1;fontFamily=Helvetica;" edge="1" parent="1" source="JOBqX9CXfl2p00bhvLgv-33" target="JOBqX9CXfl2p00bhvLgv-26">
          <mxGeometry relative="1" as="geometry"/>
        </mxCell>
        <mxCell id="JOBqX9CXfl2p00bhvLgv-33" value="modules[&quot;Push&quot;] = new PushModule()&lt;br&gt;&lt;br&gt;-----------------------------------------------------&lt;br&gt;&lt;br&gt;let msg = JSON.parse(messageStr)&lt;br&gt;let mod = modules[msg.module]&lt;br&gt;let method = mod[msg.method]&lt;br&gt;method.apply(mod, [msg])" style="rounded=0;whiteSpace=wrap;html=1;fontFamily=Helvetica;align=left;spacing=11;" vertex="1" parent="1">
          <mxGeometry x="267" y="1260" width="280" height="160" as="geometry"/>
        </mxCell>
        <mxCell id="JOBqX9CXfl2p00bhvLgv-32" value="BridgeManager" style="rounded=1;whiteSpace=wrap;html=1;fontFamily=Helvetica;align=center;" vertex="1" parent="1">
          <mxGeometry x="347" y="1240" width="120" height="40" as="geometry"/>
        </mxCell>
      </root>
    </mxGraphModel>
  </diagram>
</mxfile>
